<svg xmlns="http://www.w3.org/2000/svg" xmlns:xlink="http://www.w3.org/1999/xlink" width="500" zoomAndPan="magnify" viewBox="0 0 375 374.999991" height="500" preserveAspectRatio="xMidYMid meet" version="1.0"><defs><g><g id="id1"/></g></defs><g fill="rgb(100%, 100%, 100%)" fill-opacity="1"><g transform="translate(123.193355, 191.625105)"><g><path d="M 5.6875 -11.203125 L 5.6875 -10.96875 C 5.6875 -10.863281 5.628906 -10.8125 5.515625 -10.8125 L 3.046875 -10.8125 L 3.046875 -0.140625 C 3.046875 -0.0664062 3.023438 -0.0234375 2.984375 -0.015625 C 2.953125 -0.00390625 2.84375 0 2.65625 0 L 2.65625 -10.8125 L 0.078125 -10.8125 L 0.078125 -11.046875 C 0.078125 -11.148438 0.128906 -11.203125 0.234375 -11.203125 Z M 5.6875 -11.203125 "/></g></g></g><g fill="rgb(100%, 100%, 100%)" fill-opacity="1"><g transform="translate(128.951976, 191.625105)"><g><path d="M 1.0625 -11.515625 C 1.0625 -11.640625 1.082031 -11.710938 1.125 -11.734375 C 1.175781 -11.753906 1.28125 -11.765625 1.4375 -11.765625 L 1.4375 -7.40625 C 2.125 -7.90625 2.894531 -8.15625 3.75 -8.15625 C 4.519531 -8.15625 5.050781 -7.972656 5.34375 -7.609375 C 5.632812 -7.242188 5.78125 -6.695312 5.78125 -5.96875 L 5.78125 -0.15625 C 5.78125 -0.0820312 5.765625 -0.0351562 5.734375 -0.015625 C 5.703125 -0.00390625 5.585938 0 5.390625 0 L 5.390625 -5.96875 C 5.390625 -6.5625 5.269531 -7.007812 5.03125 -7.3125 C 4.789062 -7.625 4.351562 -7.78125 3.71875 -7.78125 C 3.34375 -7.78125 2.945312 -7.707031 2.53125 -7.5625 C 2.113281 -7.414062 1.75 -7.1875 1.4375 -6.875 L 1.4375 -0.15625 C 1.4375 -0.0820312 1.414062 -0.0351562 1.375 -0.015625 C 1.34375 -0.00390625 1.238281 0 1.0625 0 Z M 1.0625 -11.515625 "/></g></g></g><g fill="rgb(100%, 100%, 100%)" fill-opacity="1"><g transform="translate(135.590384, 191.625105)"><g><path d="M 3.4375 -0.21875 C 3.832031 -0.21875 4.210938 -0.269531 4.578125 -0.375 C 4.953125 -0.476562 5.253906 -0.625 5.484375 -0.8125 C 5.535156 -0.707031 5.5625 -0.609375 5.5625 -0.515625 C 5.5625 -0.429688 5.457031 -0.332031 5.25 -0.21875 C 5.050781 -0.113281 4.789062 -0.0234375 4.46875 0.046875 C 4.144531 0.117188 3.804688 0.15625 3.453125 0.15625 C 2.859375 0.15625 2.367188 0.0703125 1.984375 -0.09375 C 1.609375 -0.269531 1.304688 -0.625 1.078125 -1.15625 C 0.859375 -1.695312 0.75 -2.488281 0.75 -3.53125 C 0.75 -4.84375 0.890625 -5.835938 1.171875 -6.515625 C 1.460938 -7.191406 1.8125 -7.632812 2.21875 -7.84375 C 2.632812 -8.050781 3.101562 -8.15625 3.625 -8.15625 C 4.320312 -8.15625 4.828125 -7.929688 5.140625 -7.484375 C 5.460938 -7.046875 5.625 -6.4375 5.625 -5.65625 C 5.625 -4.957031 5.585938 -4.382812 5.515625 -3.9375 C 4.492188 -3.726562 3.242188 -3.625 1.765625 -3.625 L 1.140625 -3.640625 L 1.140625 -3.46875 C 1.140625 -2.53125 1.238281 -1.828125 1.4375 -1.359375 C 1.632812 -0.890625 1.890625 -0.582031 2.203125 -0.4375 C 2.523438 -0.289062 2.9375 -0.21875 3.4375 -0.21875 Z M 3.640625 -7.78125 C 3.203125 -7.78125 2.816406 -7.707031 2.484375 -7.5625 C 2.148438 -7.414062 1.851562 -7.066406 1.59375 -6.515625 C 1.34375 -5.972656 1.195312 -5.144531 1.15625 -4.03125 L 1.859375 -4.015625 C 3.265625 -4.015625 4.375 -4.097656 5.1875 -4.265625 C 5.226562 -4.691406 5.25 -5.09375 5.25 -5.46875 C 5.226562 -6.238281 5.101562 -6.816406 4.875 -7.203125 C 4.644531 -7.585938 4.234375 -7.78125 3.640625 -7.78125 Z M 3.640625 -7.78125 "/></g></g></g><g fill="rgb(100%, 100%, 100%)" fill-opacity="1"><g transform="translate(141.82889, 191.625105)"><g/></g></g><g fill="rgb(100%, 100%, 100%)" fill-opacity="1"><g transform="translate(144.868154, 191.625105)"><g><path d="M 2.671875 -0.640625 L 0.546875 -7.84375 L 0.53125 -7.90625 C 0.53125 -7.945312 0.5625 -7.972656 0.625 -7.984375 C 0.6875 -7.992188 0.769531 -8 0.875 -8 L 1.796875 -4.953125 C 2.066406 -4.035156 2.316406 -3.128906 2.546875 -2.234375 C 2.785156 -1.335938 2.941406 -0.765625 3.015625 -0.515625 L 3.03125 -0.515625 C 3.082031 -0.765625 3.21875 -1.335938 3.4375 -2.234375 C 3.664062 -3.140625 3.910156 -4.054688 4.171875 -4.984375 L 4.984375 -7.84375 C 5.015625 -7.914062 5.046875 -7.957031 5.078125 -7.96875 C 5.117188 -7.988281 5.222656 -8 5.390625 -8 L 3.109375 0.140625 L 2.890625 0.140625 Z M 2.671875 -0.640625 "/></g></g></g><g fill="rgb(100%, 100%, 100%)" fill-opacity="1"><g transform="translate(150.786729, 191.625105)"><g><path d="M 1.140625 -7.765625 C 1.140625 -7.878906 1.160156 -7.945312 1.203125 -7.96875 C 1.253906 -7.988281 1.359375 -8 1.515625 -8 L 1.515625 -0.15625 C 1.515625 -0.0820312 1.5 -0.0351562 1.46875 -0.015625 C 1.4375 -0.00390625 1.328125 0 1.140625 0 Z M 1.3125 -9.828125 C 1.132812 -9.835938 1.046875 -9.960938 1.046875 -10.203125 C 1.046875 -10.546875 1.144531 -10.71875 1.34375 -10.71875 C 1.53125 -10.71875 1.625 -10.578125 1.625 -10.296875 C 1.625 -10.140625 1.597656 -10.019531 1.546875 -9.9375 C 1.503906 -9.863281 1.425781 -9.828125 1.3125 -9.828125 Z M 1.3125 -9.828125 "/></g></g></g><g fill="rgb(100%, 100%, 100%)" fill-opacity="1"><g transform="translate(153.44209, 191.625105)"><g><path d="M 2.890625 0.15625 C 2.472656 0.15625 2.101562 0.125 1.78125 0.0625 C 1.46875 0.0078125 1.222656 -0.0546875 1.046875 -0.140625 C 0.878906 -0.234375 0.796875 -0.320312 0.796875 -0.40625 C 0.796875 -0.53125 0.835938 -0.625 0.921875 -0.6875 C 1.179688 -0.53125 1.457031 -0.410156 1.75 -0.328125 C 2.039062 -0.253906 2.414062 -0.21875 2.875 -0.21875 C 3.5625 -0.21875 4.101562 -0.34375 4.5 -0.59375 C 4.894531 -0.851562 5.09375 -1.25 5.09375 -1.78125 C 5.09375 -2.175781 4.992188 -2.519531 4.796875 -2.8125 C 4.609375 -3.113281 4.3125 -3.40625 3.90625 -3.6875 L 2.0625 -4.75 C 1.570312 -5.039062 1.25 -5.304688 1.09375 -5.546875 C 0.9375 -5.785156 0.859375 -6.082031 0.859375 -6.4375 C 0.859375 -6.976562 1.097656 -7.398438 1.578125 -7.703125 C 2.066406 -8.003906 2.6875 -8.15625 3.4375 -8.15625 C 3.851562 -8.15625 4.21875 -8.113281 4.53125 -8.03125 C 4.851562 -7.945312 5.097656 -7.847656 5.265625 -7.734375 C 5.429688 -7.617188 5.515625 -7.53125 5.515625 -7.46875 C 5.515625 -7.394531 5.46875 -7.300781 5.375 -7.1875 C 5.0625 -7.382812 4.757812 -7.53125 4.46875 -7.625 C 4.175781 -7.726562 3.832031 -7.78125 3.4375 -7.78125 C 2.8125 -7.78125 2.289062 -7.660156 1.875 -7.421875 C 1.457031 -7.191406 1.25 -6.867188 1.25 -6.453125 C 1.25 -6.191406 1.3125 -5.960938 1.4375 -5.765625 C 1.570312 -5.566406 1.828125 -5.359375 2.203125 -5.140625 L 4.234375 -3.90625 C 4.648438 -3.613281 4.957031 -3.304688 5.15625 -2.984375 C 5.363281 -2.671875 5.46875 -2.316406 5.46875 -1.921875 C 5.46875 -1.234375 5.242188 -0.710938 4.796875 -0.359375 C 4.359375 -0.015625 3.722656 0.15625 2.890625 0.15625 Z M 2.890625 0.15625 "/></g></g></g><g fill="rgb(100%, 100%, 100%)" fill-opacity="1"><g transform="translate(159.760567, 191.625105)"><g><path d="M 1.140625 -7.765625 C 1.140625 -7.878906 1.160156 -7.945312 1.203125 -7.96875 C 1.253906 -7.988281 1.359375 -8 1.515625 -8 L 1.515625 -0.15625 C 1.515625 -0.0820312 1.5 -0.0351562 1.46875 -0.015625 C 1.4375 -0.00390625 1.328125 0 1.140625 0 Z M 1.3125 -9.828125 C 1.132812 -9.835938 1.046875 -9.960938 1.046875 -10.203125 C 1.046875 -10.546875 1.144531 -10.71875 1.34375 -10.71875 C 1.53125 -10.71875 1.625 -10.578125 1.625 -10.296875 C 1.625 -10.140625 1.597656 -10.019531 1.546875 -9.9375 C 1.503906 -9.863281 1.425781 -9.828125 1.3125 -9.828125 Z M 1.3125 -9.828125 "/></g></g></g><g fill="rgb(100%, 100%, 100%)" fill-opacity="1"><g transform="translate(162.415928, 191.625105)"><g><path d="M 3.125 0.15625 C 2.5625 0.15625 2.101562 0.0546875 1.75 -0.140625 C 1.40625 -0.335938 1.132812 -0.734375 0.9375 -1.328125 C 0.738281 -1.921875 0.640625 -2.800781 0.640625 -3.96875 C 0.640625 -6.757812 1.53125 -8.15625 3.3125 -8.15625 C 3.875 -8.15625 4.332031 -8.03125 4.6875 -7.78125 C 5.050781 -7.53125 5.320312 -7.097656 5.5 -6.484375 C 5.6875 -5.878906 5.78125 -5.039062 5.78125 -3.96875 C 5.78125 -2.601562 5.550781 -1.570312 5.09375 -0.875 C 4.632812 -0.1875 3.976562 0.15625 3.125 0.15625 Z M 3.140625 -0.21875 C 3.847656 -0.21875 4.398438 -0.539062 4.796875 -1.1875 C 5.191406 -1.832031 5.390625 -2.78125 5.390625 -4.03125 C 5.390625 -5 5.304688 -5.757812 5.140625 -6.3125 C 4.972656 -6.863281 4.738281 -7.242188 4.4375 -7.453125 C 4.132812 -7.671875 3.753906 -7.78125 3.296875 -7.78125 C 2.566406 -7.78125 2.003906 -7.472656 1.609375 -6.859375 C 1.222656 -6.242188 1.03125 -5.242188 1.03125 -3.859375 C 1.03125 -2.910156 1.109375 -2.171875 1.265625 -1.640625 C 1.421875 -1.109375 1.648438 -0.738281 1.953125 -0.53125 C 2.265625 -0.320312 2.660156 -0.21875 3.140625 -0.21875 Z M 3.140625 -0.21875 "/></g></g></g><g fill="rgb(100%, 100%, 100%)" fill-opacity="1"><g transform="translate(168.830387, 191.625105)"><g><path d="M 1.078125 -7.578125 C 2.015625 -7.960938 2.894531 -8.15625 3.71875 -8.15625 C 4.289062 -8.15625 4.734375 -8.066406 5.046875 -7.890625 C 5.359375 -7.722656 5.570312 -7.476562 5.6875 -7.15625 C 5.800781 -6.832031 5.859375 -6.410156 5.859375 -5.890625 L 5.859375 -0.15625 C 5.859375 -0.0820312 5.84375 -0.0351562 5.8125 -0.015625 C 5.78125 -0.00390625 5.664062 0 5.46875 0 L 5.46875 -5.828125 C 5.46875 -6.296875 5.421875 -6.664062 5.328125 -6.9375 C 5.234375 -7.21875 5.0625 -7.425781 4.8125 -7.5625 C 4.5625 -7.707031 4.203125 -7.78125 3.734375 -7.78125 C 3.390625 -7.78125 3 -7.738281 2.5625 -7.65625 C 2.132812 -7.570312 1.765625 -7.457031 1.453125 -7.3125 L 1.453125 -0.15625 C 1.453125 -0.0820312 1.4375 -0.0351562 1.40625 -0.015625 C 1.375 -0.00390625 1.265625 0 1.078125 0 Z M 1.078125 -7.578125 "/></g></g></g><g fill="rgb(100%, 100%, 100%)" fill-opacity="1"><g transform="translate(175.580764, 191.625105)"><g/></g></g><g fill="rgb(100%, 100%, 100%)" fill-opacity="1"><g transform="translate(178.620029, 191.625105)"><g><path d="M 2.953125 0.15625 C 2.148438 0.15625 1.539062 0 1.125 -0.3125 L 1.125 -11.515625 C 1.125 -11.628906 1.148438 -11.695312 1.203125 -11.71875 C 1.253906 -11.75 1.351562 -11.765625 1.5 -11.765625 L 1.5 -7.40625 C 1.820312 -7.65625 2.164062 -7.84375 2.53125 -7.96875 C 2.894531 -8.09375 3.332031 -8.15625 3.84375 -8.15625 C 4.539062 -8.144531 5.085938 -7.910156 5.484375 -7.453125 C 5.878906 -6.992188 6.078125 -6.238281 6.078125 -5.1875 C 6.078125 -3.070312 5.769531 -1.648438 5.15625 -0.921875 C 4.550781 -0.203125 3.816406 0.15625 2.953125 0.15625 Z M 2.96875 -0.21875 C 4.789062 -0.21875 5.703125 -1.800781 5.703125 -4.96875 C 5.703125 -6.019531 5.539062 -6.75 5.21875 -7.15625 C 4.90625 -7.570312 4.398438 -7.78125 3.703125 -7.78125 C 2.835938 -7.78125 2.101562 -7.492188 1.5 -6.921875 L 1.5 -0.59375 C 1.8125 -0.34375 2.300781 -0.21875 2.96875 -0.21875 Z M 2.96875 -0.21875 "/></g></g></g><g fill="rgb(100%, 100%, 100%)" fill-opacity="1"><g transform="translate(185.370406, 191.625105)"><g><path d="M 3.4375 -0.21875 C 3.832031 -0.21875 4.210938 -0.269531 4.578125 -0.375 C 4.953125 -0.476562 5.253906 -0.625 5.484375 -0.8125 C 5.535156 -0.707031 5.5625 -0.609375 5.5625 -0.515625 C 5.5625 -0.429688 5.457031 -0.332031 5.25 -0.21875 C 5.050781 -0.113281 4.789062 -0.0234375 4.46875 0.046875 C 4.144531 0.117188 3.804688 0.15625 3.453125 0.15625 C 2.859375 0.15625 2.367188 0.0703125 1.984375 -0.09375 C 1.609375 -0.269531 1.304688 -0.625 1.078125 -1.15625 C 0.859375 -1.695312 0.75 -2.488281 0.75 -3.53125 C 0.75 -4.84375 0.890625 -5.835938 1.171875 -6.515625 C 1.460938 -7.191406 1.8125 -7.632812 2.21875 -7.84375 C 2.632812 -8.050781 3.101562 -8.15625 3.625 -8.15625 C 4.320312 -8.15625 4.828125 -7.929688 5.140625 -7.484375 C 5.460938 -7.046875 5.625 -6.4375 5.625 -5.65625 C 5.625 -4.957031 5.585938 -4.382812 5.515625 -3.9375 C 4.492188 -3.726562 3.242188 -3.625 1.765625 -3.625 L 1.140625 -3.640625 L 1.140625 -3.46875 C 1.140625 -2.53125 1.238281 -1.828125 1.4375 -1.359375 C 1.632812 -0.890625 1.890625 -0.582031 2.203125 -0.4375 C 2.523438 -0.289062 2.9375 -0.21875 3.4375 -0.21875 Z M 3.640625 -7.78125 C 3.203125 -7.78125 2.816406 -7.707031 2.484375 -7.5625 C 2.148438 -7.414062 1.851562 -7.066406 1.59375 -6.515625 C 1.34375 -5.972656 1.195312 -5.144531 1.15625 -4.03125 L 1.859375 -4.015625 C 3.265625 -4.015625 4.375 -4.097656 5.1875 -4.265625 C 5.226562 -4.691406 5.25 -5.09375 5.25 -5.46875 C 5.226562 -6.238281 5.101562 -6.816406 4.875 -7.203125 C 4.644531 -7.585938 4.234375 -7.78125 3.640625 -7.78125 Z M 3.640625 -7.78125 "/></g></g></g><g fill="rgb(100%, 100%, 100%)" fill-opacity="1"><g transform="translate(191.608912, 191.625105)"><g><path d="M 1.140625 3.09375 C 0.835938 3.09375 0.59375 3.0625 0.40625 3 C 0.21875 2.945312 0.125 2.875 0.125 2.78125 C 0.125 2.738281 0.132812 2.6875 0.15625 2.625 C 0.1875 2.570312 0.21875 2.535156 0.25 2.515625 C 0.382812 2.578125 0.535156 2.625 0.703125 2.65625 C 0.878906 2.6875 1.03125 2.703125 1.15625 2.703125 C 1.957031 2.703125 2.5625 1.882812 2.96875 0.25 L 0.71875 -7.84375 C 0.707031 -7.863281 0.703125 -7.894531 0.703125 -7.9375 C 0.703125 -7.96875 0.734375 -7.984375 0.796875 -7.984375 C 0.859375 -7.992188 0.953125 -8 1.078125 -8 L 2.671875 -2.25 C 2.785156 -1.8125 2.890625 -1.378906 2.984375 -0.953125 C 3.085938 -0.523438 3.148438 -0.253906 3.171875 -0.140625 C 3.191406 -0.253906 3.242188 -0.523438 3.328125 -0.953125 C 3.421875 -1.378906 3.523438 -1.820312 3.640625 -2.28125 L 5.125 -7.84375 C 5.144531 -7.925781 5.171875 -7.972656 5.203125 -7.984375 C 5.242188 -7.992188 5.363281 -8 5.5625 -8 L 3.28125 0.5625 C 3.03125 1.46875 2.726562 2.113281 2.375 2.5 C 2.03125 2.894531 1.617188 3.09375 1.140625 3.09375 Z M 1.140625 3.09375 "/></g></g></g><g fill="rgb(100%, 100%, 100%)" fill-opacity="1"><g transform="translate(197.783434, 191.625105)"><g><path d="M 3.125 0.15625 C 2.5625 0.15625 2.101562 0.0546875 1.75 -0.140625 C 1.40625 -0.335938 1.132812 -0.734375 0.9375 -1.328125 C 0.738281 -1.921875 0.640625 -2.800781 0.640625 -3.96875 C 0.640625 -6.757812 1.53125 -8.15625 3.3125 -8.15625 C 3.875 -8.15625 4.332031 -8.03125 4.6875 -7.78125 C 5.050781 -7.53125 5.320312 -7.097656 5.5 -6.484375 C 5.6875 -5.878906 5.78125 -5.039062 5.78125 -3.96875 C 5.78125 -2.601562 5.550781 -1.570312 5.09375 -0.875 C 4.632812 -0.1875 3.976562 0.15625 3.125 0.15625 Z M 3.140625 -0.21875 C 3.847656 -0.21875 4.398438 -0.539062 4.796875 -1.1875 C 5.191406 -1.832031 5.390625 -2.78125 5.390625 -4.03125 C 5.390625 -5 5.304688 -5.757812 5.140625 -6.3125 C 4.972656 -6.863281 4.738281 -7.242188 4.4375 -7.453125 C 4.132812 -7.671875 3.753906 -7.78125 3.296875 -7.78125 C 2.566406 -7.78125 2.003906 -7.472656 1.609375 -6.859375 C 1.222656 -6.242188 1.03125 -5.242188 1.03125 -3.859375 C 1.03125 -2.910156 1.109375 -2.171875 1.265625 -1.640625 C 1.421875 -1.109375 1.648438 -0.738281 1.953125 -0.53125 C 2.265625 -0.320312 2.660156 -0.21875 3.140625 -0.21875 Z M 3.140625 -0.21875 "/></g></g></g><g fill="rgb(100%, 100%, 100%)" fill-opacity="1"><g transform="translate(204.197893, 191.625105)"><g><path d="M 1.078125 -7.578125 C 2.015625 -7.960938 2.894531 -8.15625 3.71875 -8.15625 C 4.289062 -8.15625 4.734375 -8.066406 5.046875 -7.890625 C 5.359375 -7.722656 5.570312 -7.476562 5.6875 -7.15625 C 5.800781 -6.832031 5.859375 -6.410156 5.859375 -5.890625 L 5.859375 -0.15625 C 5.859375 -0.0820312 5.84375 -0.0351562 5.8125 -0.015625 C 5.78125 -0.00390625 5.664062 0 5.46875 0 L 5.46875 -5.828125 C 5.46875 -6.296875 5.421875 -6.664062 5.328125 -6.9375 C 5.234375 -7.21875 5.0625 -7.425781 4.8125 -7.5625 C 4.5625 -7.707031 4.203125 -7.78125 3.734375 -7.78125 C 3.390625 -7.78125 3 -7.738281 2.5625 -7.65625 C 2.132812 -7.570312 1.765625 -7.457031 1.453125 -7.3125 L 1.453125 -0.15625 C 1.453125 -0.0820312 1.4375 -0.0351562 1.40625 -0.015625 C 1.375 -0.00390625 1.265625 0 1.078125 0 Z M 1.078125 -7.578125 "/></g></g></g><g fill="rgb(100%, 100%, 100%)" fill-opacity="1"><g transform="translate(210.94827, 191.625105)"><g><path d="M 3.40625 0.15625 C 2.84375 0.15625 2.378906 0.0664062 2.015625 -0.109375 C 1.648438 -0.296875 1.351562 -0.679688 1.125 -1.265625 C 0.90625 -1.847656 0.796875 -2.710938 0.796875 -3.859375 C 0.796875 -4.804688 0.925781 -5.601562 1.1875 -6.25 C 1.445312 -6.894531 1.796875 -7.375 2.234375 -7.6875 C 2.679688 -8 3.179688 -8.15625 3.734375 -8.15625 C 4.046875 -8.15625 4.320312 -8.125 4.5625 -8.0625 C 4.800781 -8.007812 5.023438 -7.914062 5.234375 -7.78125 L 5.234375 -11.515625 C 5.234375 -11.628906 5.257812 -11.695312 5.3125 -11.71875 C 5.363281 -11.75 5.46875 -11.765625 5.625 -11.765625 L 5.625 -0.3125 C 5.363281 -0.164062 5.035156 -0.0507812 4.640625 0.03125 C 4.253906 0.113281 3.84375 0.15625 3.40625 0.15625 Z M 3.515625 -0.21875 C 4.242188 -0.21875 4.820312 -0.351562 5.25 -0.625 L 5.234375 -7.328125 C 5.015625 -7.492188 4.800781 -7.609375 4.59375 -7.671875 C 4.394531 -7.742188 4.125 -7.78125 3.78125 -7.78125 C 3.289062 -7.78125 2.847656 -7.628906 2.453125 -7.328125 C 2.066406 -7.023438 1.757812 -6.578125 1.53125 -5.984375 C 1.300781 -5.398438 1.1875 -4.691406 1.1875 -3.859375 C 1.1875 -2.796875 1.28125 -2.003906 1.46875 -1.484375 C 1.664062 -0.960938 1.921875 -0.625 2.234375 -0.46875 C 2.554688 -0.3125 2.984375 -0.226562 3.515625 -0.21875 Z M 3.515625 -0.21875 "/></g></g></g><g fill="rgb(100%, 100%, 100%)" fill-opacity="1"><g transform="translate(217.698647, 191.625105)"><g/></g></g><g fill="rgb(100%, 100%, 100%)" fill-opacity="1"><g transform="translate(220.737911, 191.625105)"><g><path d="M 2.890625 0.15625 C 2.472656 0.15625 2.101562 0.125 1.78125 0.0625 C 1.46875 0.0078125 1.222656 -0.0546875 1.046875 -0.140625 C 0.878906 -0.234375 0.796875 -0.320312 0.796875 -0.40625 C 0.796875 -0.53125 0.835938 -0.625 0.921875 -0.6875 C 1.179688 -0.53125 1.457031 -0.410156 1.75 -0.328125 C 2.039062 -0.253906 2.414062 -0.21875 2.875 -0.21875 C 3.5625 -0.21875 4.101562 -0.34375 4.5 -0.59375 C 4.894531 -0.851562 5.09375 -1.25 5.09375 -1.78125 C 5.09375 -2.175781 4.992188 -2.519531 4.796875 -2.8125 C 4.609375 -3.113281 4.3125 -3.40625 3.90625 -3.6875 L 2.0625 -4.75 C 1.570312 -5.039062 1.25 -5.304688 1.09375 -5.546875 C 0.9375 -5.785156 0.859375 -6.082031 0.859375 -6.4375 C 0.859375 -6.976562 1.097656 -7.398438 1.578125 -7.703125 C 2.066406 -8.003906 2.6875 -8.15625 3.4375 -8.15625 C 3.851562 -8.15625 4.21875 -8.113281 4.53125 -8.03125 C 4.851562 -7.945312 5.097656 -7.847656 5.265625 -7.734375 C 5.429688 -7.617188 5.515625 -7.53125 5.515625 -7.46875 C 5.515625 -7.394531 5.46875 -7.300781 5.375 -7.1875 C 5.0625 -7.382812 4.757812 -7.53125 4.46875 -7.625 C 4.175781 -7.726562 3.832031 -7.78125 3.4375 -7.78125 C 2.8125 -7.78125 2.289062 -7.660156 1.875 -7.421875 C 1.457031 -7.191406 1.25 -6.867188 1.25 -6.453125 C 1.25 -6.191406 1.3125 -5.960938 1.4375 -5.765625 C 1.570312 -5.566406 1.828125 -5.359375 2.203125 -5.140625 L 4.234375 -3.90625 C 4.648438 -3.613281 4.957031 -3.304688 5.15625 -2.984375 C 5.363281 -2.671875 5.46875 -2.316406 5.46875 -1.921875 C 5.46875 -1.234375 5.242188 -0.710938 4.796875 -0.359375 C 4.359375 -0.015625 3.722656 0.15625 2.890625 0.15625 Z M 2.890625 0.15625 "/></g></g></g><g fill="rgb(100%, 100%, 100%)" fill-opacity="1"><g transform="translate(227.056389, 191.625105)"><g><path d="M 3.1875 0.15625 C 2.78125 0.15625 2.484375 0.046875 2.296875 -0.171875 C 2.117188 -0.390625 2.007812 -0.664062 1.96875 -1 C 1.925781 -1.332031 1.90625 -1.816406 1.90625 -2.453125 L 1.90625 -7.609375 L 0.578125 -7.609375 C 0.578125 -7.785156 0.582031 -7.894531 0.59375 -7.9375 C 0.613281 -7.976562 0.648438 -8 0.703125 -8 L 1.90625 -8 L 1.90625 -10.640625 C 1.90625 -10.753906 1.921875 -10.820312 1.953125 -10.84375 C 1.992188 -10.863281 2.101562 -10.875 2.28125 -10.875 L 2.28125 -8 L 4.546875 -8 C 4.546875 -7.832031 4.539062 -7.722656 4.53125 -7.671875 C 4.519531 -7.628906 4.492188 -7.609375 4.453125 -7.609375 L 2.28125 -7.609375 L 2.28125 -2.40625 C 2.28125 -1.882812 2.296875 -1.476562 2.328125 -1.1875 C 2.367188 -0.894531 2.453125 -0.660156 2.578125 -0.484375 C 2.710938 -0.304688 2.925781 -0.21875 3.21875 -0.21875 C 3.445312 -0.21875 3.632812 -0.238281 3.78125 -0.28125 C 3.9375 -0.332031 4.128906 -0.410156 4.359375 -0.515625 C 4.390625 -0.441406 4.40625 -0.359375 4.40625 -0.265625 C 4.40625 -0.148438 4.285156 -0.0507812 4.046875 0.03125 C 3.804688 0.113281 3.519531 0.15625 3.1875 0.15625 Z M 3.1875 0.15625 "/></g></g></g><g fill="rgb(100%, 100%, 100%)" fill-opacity="1"><g transform="translate(231.935222, 191.625105)"><g><path d="M 3.046875 0.15625 C 2.585938 0.164062 2.191406 0.125 1.859375 0.03125 C 1.523438 -0.0625 1.25 -0.28125 1.03125 -0.625 C 0.820312 -0.976562 0.71875 -1.488281 0.71875 -2.15625 C 0.71875 -3.195312 0.957031 -3.890625 1.4375 -4.234375 C 1.914062 -4.578125 2.566406 -4.75 3.390625 -4.75 C 3.992188 -4.75 4.476562 -4.695312 4.84375 -4.59375 L 4.84375 -6.15625 C 4.84375 -6.789062 4.707031 -7.21875 4.4375 -7.4375 C 4.164062 -7.664062 3.773438 -7.78125 3.265625 -7.78125 C 2.703125 -7.78125 2.195312 -7.734375 1.75 -7.640625 C 1.3125 -7.554688 0.984375 -7.460938 0.765625 -7.359375 C 0.722656 -7.429688 0.703125 -7.5 0.703125 -7.5625 C 0.703125 -7.6875 0.726562 -7.757812 0.78125 -7.78125 C 0.976562 -7.875 1.320312 -7.957031 1.8125 -8.03125 C 2.300781 -8.113281 2.8125 -8.15625 3.34375 -8.15625 C 3.957031 -8.15625 4.425781 -8.003906 4.75 -7.703125 C 5.070312 -7.410156 5.234375 -6.914062 5.234375 -6.21875 L 5.234375 -5.171875 C 5.234375 -3.734375 5.203125 -2.160156 5.140625 -0.453125 C 4.867188 -0.273438 4.578125 -0.128906 4.265625 -0.015625 C 3.960938 0.0976562 3.554688 0.15625 3.046875 0.15625 Z M 3.15625 -0.21875 C 3.476562 -0.21875 3.789062 -0.269531 4.09375 -0.375 C 4.40625 -0.476562 4.625 -0.582031 4.75 -0.6875 C 4.8125 -1.539062 4.84375 -2.71875 4.84375 -4.21875 C 4.425781 -4.34375 3.96875 -4.40625 3.46875 -4.40625 C 2.976562 -4.40625 2.566406 -4.351562 2.234375 -4.25 C 1.910156 -4.15625 1.640625 -3.945312 1.421875 -3.625 C 1.210938 -3.300781 1.109375 -2.816406 1.109375 -2.171875 C 1.109375 -1.578125 1.195312 -1.140625 1.375 -0.859375 C 1.550781 -0.578125 1.78125 -0.398438 2.0625 -0.328125 C 2.34375 -0.253906 2.707031 -0.21875 3.15625 -0.21875 Z M 3.15625 -0.21875 "/></g></g></g><g fill="rgb(100%, 100%, 100%)" fill-opacity="1"><g transform="translate(238.061748, 191.625105)"><g><path d="M 1.078125 -7.453125 C 1.742188 -7.921875 2.441406 -8.15625 3.171875 -8.15625 C 3.523438 -8.15625 3.8125 -8.113281 4.03125 -8.03125 C 4.257812 -7.945312 4.375 -7.847656 4.375 -7.734375 C 4.375 -7.671875 4.359375 -7.613281 4.328125 -7.5625 C 4.304688 -7.519531 4.285156 -7.488281 4.265625 -7.46875 C 3.929688 -7.675781 3.578125 -7.78125 3.203125 -7.78125 C 2.515625 -7.78125 1.929688 -7.59375 1.453125 -7.21875 L 1.453125 -0.15625 C 1.453125 -0.0820312 1.429688 -0.0351562 1.390625 -0.015625 C 1.359375 -0.00390625 1.253906 0 1.078125 0 Z M 1.078125 -7.453125 "/></g></g></g><g fill="rgb(100%, 100%, 100%)" fill-opacity="1"><g transform="translate(242.684634, 191.625105)"><g><path d="M 2.890625 0.15625 C 2.472656 0.15625 2.101562 0.125 1.78125 0.0625 C 1.46875 0.0078125 1.222656 -0.0546875 1.046875 -0.140625 C 0.878906 -0.234375 0.796875 -0.320312 0.796875 -0.40625 C 0.796875 -0.53125 0.835938 -0.625 0.921875 -0.6875 C 1.179688 -0.53125 1.457031 -0.410156 1.75 -0.328125 C 2.039062 -0.253906 2.414062 -0.21875 2.875 -0.21875 C 3.5625 -0.21875 4.101562 -0.34375 4.5 -0.59375 C 4.894531 -0.851562 5.09375 -1.25 5.09375 -1.78125 C 5.09375 -2.175781 4.992188 -2.519531 4.796875 -2.8125 C 4.609375 -3.113281 4.3125 -3.40625 3.90625 -3.6875 L 2.0625 -4.75 C 1.570312 -5.039062 1.25 -5.304688 1.09375 -5.546875 C 0.9375 -5.785156 0.859375 -6.082031 0.859375 -6.4375 C 0.859375 -6.976562 1.097656 -7.398438 1.578125 -7.703125 C 2.066406 -8.003906 2.6875 -8.15625 3.4375 -8.15625 C 3.851562 -8.15625 4.21875 -8.113281 4.53125 -8.03125 C 4.851562 -7.945312 5.097656 -7.847656 5.265625 -7.734375 C 5.429688 -7.617188 5.515625 -7.53125 5.515625 -7.46875 C 5.515625 -7.394531 5.46875 -7.300781 5.375 -7.1875 C 5.0625 -7.382812 4.757812 -7.53125 4.46875 -7.625 C 4.175781 -7.726562 3.832031 -7.78125 3.4375 -7.78125 C 2.8125 -7.78125 2.289062 -7.660156 1.875 -7.421875 C 1.457031 -7.191406 1.25 -6.867188 1.25 -6.453125 C 1.25 -6.191406 1.3125 -5.960938 1.4375 -5.765625 C 1.570312 -5.566406 1.828125 -5.359375 2.203125 -5.140625 L 4.234375 -3.90625 C 4.648438 -3.613281 4.957031 -3.304688 5.15625 -2.984375 C 5.363281 -2.671875 5.46875 -2.316406 5.46875 -1.921875 C 5.46875 -1.234375 5.242188 -0.710938 4.796875 -0.359375 C 4.359375 -0.015625 3.722656 0.15625 2.890625 0.15625 Z M 2.890625 0.15625 "/></g></g></g><g fill="rgb(100%, 100%, 100%)" fill-opacity="1"><g transform="translate(249.003111, 191.625105)"><g><path d="M 1.4375 0.0625 C 1.300781 0.0625 1.195312 0.0195312 1.125 -0.0625 C 1.050781 -0.15625 1.015625 -0.28125 1.015625 -0.4375 C 1.015625 -0.570312 1.050781 -0.679688 1.125 -0.765625 C 1.207031 -0.859375 1.3125 -0.90625 1.4375 -0.90625 C 1.5625 -0.90625 1.671875 -0.859375 1.765625 -0.765625 C 1.859375 -0.671875 1.90625 -0.5625 1.90625 -0.4375 C 1.90625 -0.28125 1.859375 -0.15625 1.765625 -0.0625 C 1.679688 0.0195312 1.570312 0.0625 1.4375 0.0625 Z M 1.4375 0.0625 "/></g></g></g></svg>